PathFileType	4	(X/Y/Z)	C:/Users/opensim2020/Desktop/walking_exp_matlab/subject03_walking07_straight_02.trc	
DataRate	CameraRate	NumFrames	NumMarkers	Units	OrigDataRate	OrigDataStartFrame	OrigNumFrames	
100.00	100.00	4	46	mm	100.00	1498	252	
Frame#	Time	LFHD			RFHD			LBHD			RBHD			C7			T10			CLAV			STRN			RBAK			LSHO			LUPA			LELB			LFRM			LWRA			LWRB			LFIN			RSHO			RUPA			RELB			RFRM			RWRA			RWRB			RFIN			LASI			RASI			LPSI			RPSI			LTHI			LKNE			LTIB			LANK			LHEE			LTOE			RTHI			RKNE			RTIB			RANK			RHEE			RTOE			*39			*40			*41			*42			*43			*44			*45			
		X1	Y1	Z1	X2	Y2	Z2	X3	Y3	Z3	X4	Y4	Z4	X5	Y5	Z5	X6	Y6	Z6	X7	Y7	Z7	X8	Y8	Z8	X9	Y9	Z9	X10	Y10	Z10	X11	Y11	Z11	X12	Y12	Z12	X13	Y13	Z13	X14	Y14	Z14	X15	Y15	Z15	X16	Y16	Z16	X17	Y17	Z17	X18	Y18	Z18	X19	Y19	Z19	X20	Y20	Z20	X21	Y21	Z21	X22	Y22	Z22	X23	Y23	Z23	X24	Y24	Z24	X25	Y25	Z25	X26	Y26	Z26	X27	Y27	Z27	X28	Y28	Z28	X29	Y29	Z29	X30	Y30	Z30	X31	Y31	Z31	X32	Y32	Z32	X33	Y33	Z33	X34	Y34	Z34	X35	Y35	Z35	X36	Y36	Z36	X37	Y37	Z37	X38	Y38	Z38	X39	Y39	Z39	X40	Y40	Z40	X41	Y41	Z41	X42	Y42	Z42	X43	Y43	Z43	X44	Y44	Z44	X45	Y45	Z45	X46	Y46	Z46	

32	0.310	-927.45673	818.80072	1597.45886	-1059.35620	833.52148	1606.71069	-918.43298	949.99042	1564.72705	-1048.82495	959.76453	1573.07739	-974.79138	997.07764	1407.06250	-978.34875	1041.40198	1093.50903	-989.87244	879.85809	1324.37500	-986.11218	841.22913	1158.97046	-1063.36279	1067.54944	1231.79407	-831.32043	904.32068	1363.67651	-755.76245	866.27051	1176.97156	-746.41754	818.83917	1064.12476	-764.47144	736.15326	967.93555	-812.84729	664.19379	882.82104	-760.79999	678.25378	869.33905	-782.31415	618.66687	814.90137	-1143.10864	942.82434	1349.35876	-1216.41321	962.58807	1127.59570	-1232.10925	953.49261	1015.66608	-1236.28674	941.37604	879.34161	-1204.81165	910.29395	783.25482	-1245.33032	946.38013	779.05011	-1236.83740	924.80231	707.18872	-865.89813	874.09088	929.75525	-1105.53369	876.24872	929.05298	-916.35956	1036.45056	951.46509	-1064.57996	1037.48792	951.62976	-840.39740	957.04889	630.57159	-882.94922	982.31934	455.21982	-886.67249	1064.64014	274.93576	-934.75073	1113.56787	69.98876	-972.67010	1155.58337	37.63471	-951.93408	962.57520	29.34667	-1158.44971	858.58588	639.10187	-1127.56067	776.13275	479.11914	-1134.84229	779.21808	290.16721	-1095.39868	752.62366	73.60186	-1039.69238	786.83246	36.42687	-1085.02209	609.55432	52.71014				-965.93243	899.38177	1669.60547															 
33	0.320	-928.37402	809.55481	1596.43164	-1060.25830	824.44977	1605.47974	-919.15948	940.67169	1563.31665	-1049.58582	950.56799	1571.54333	-975.43719	987.63196	1405.79041	-979.26807	1031.91553	1092.16516	-990.42426	870.50153	1323.10596	-986.65656	831.76404	1157.47791	-1063.72961	1057.96985	1230.27588	-831.96777	894.63525	1362.20288	-756.27362	856.18384	1175.62988	-746.93390	808.40082	1063.06274	-765.76215	724.78137	967.92328	-815.01947	652.25275	883.81409	-762.65161	665.68872	870.07745	-784.73828	605.54584	816.53595	-1143.85620	933.59497	1347.94775	-1216.70215	954.49323	1126.17542	-1232.40637	945.91022	1014.10620	-1236.49194	934.26324	877.75043	-1205.17822	903.20300	781.64899	-1245.30847	939.70819	777.45111	-1236.99524	918.14758	705.45886	-866.39099	864.87390	928.49768	-1105.96130	866.20129	927.47986	-917.37219	1027.20508	950.18823	-1065.58630	1027.57800	950.05328	-840.60620	949.92279	629.92468	-882.94604	977.01910	454.75815	-886.67419	1061.81824	275.36771	-934.58411	1113.12415	70.79836	-972.78394	1155.23535	38.74269	-951.90698	962.48407	29.24342	-1158.85486	851.60876	636.49396	-1126.58472	768.22308	476.90518	-1134.67786	764.31018	289.09424	-1096.36902	727.27747	73.65809	-1040.58533	760.40820	35.90567	-1085.31287	583.18005	55.85064				-967.05505	890.53784	1668.39478															 
34	0.330	-929.27570	800.22198	1595.46436	-1061.16577	815.26477	1604.31433	-919.96802	931.26630	1562.04321	-1050.29834	941.21857	1570.03979	-976.10071	977.99261	1404.48718	-980.24438	1022.33496	1090.87781	-991.25507	860.71368	1321.67505	-987.23486	822.14954	1156.22266	-1064.21863	1048.30591	1228.82910	-832.63135	884.96411	1360.74011	-756.91016	846.24078	1174.30103	-747.53564	798.00171	1062.01062	-767.13409	713.63971	967.71191	-817.09436	640.74255	884.45575	-764.47266	653.52081	870.50757	-787.05786	592.95813	817.84882	-1144.59900	924.20111	1346.59998	-1217.02673	946.19366	1124.82068	-1232.71716	938.16766	1012.69092	-1236.69995	927.02734	876.21674	-1205.55188	895.98950	780.11047	-1245.31116	932.88104	775.99194	-1237.22278	911.40106	703.96527	-867.13800	855.70465	927.33777	-1106.36633	855.89453	925.89026	-918.52155	1017.83496	948.95465	-1066.74146	1017.56610	948.62335	-840.80652	942.68396	629.26556	-882.89392	971.54352	454.30765	-886.57697	1058.80676	275.87747	-934.46631	1112.70557	71.78492	-972.49158	1155.15625	40.29328	-951.85229	962.35870	29.13671	-1159.53955	844.46497	633.97107	-1125.77429	760.38794	474.60779	-1134.35901	750.15381	288.27103	-1097.02283	704.15723	74.20527	-1041.15027	736.04413	35.83995	-1085.58899	559.08368	59.50703				-967.92078	881.45050	1666.99585															 
35	0.340	-930.21448	790.88397	1594.54431	-1062.16260	806.00739	1603.25708	-920.75787	921.79144	1560.88257	-1051.09021	931.85461	1568.70410	-976.76361	968.23901	1403.25671	-981.31195	1012.64557	1089.67236	-991.95062	851.01129	1320.53406	-987.85724	812.43604	1155.03625	-1064.77942	1038.51746	1227.46045	-833.37823	875.15405	1359.37891	-757.58575	836.33490	1173.07642	-748.14362	787.62610	1060.94055	-768.44617	702.86444	967.35229	-818.96570	629.64545	884.68854	-766.24426	641.92444	870.73553	-789.22424	580.87158	818.76367	-1145.37256	914.65723	1345.38196	-1217.37903	937.63733	1123.52002	-1232.98840	930.18390	1011.32013	-1236.91418	919.60645	874.83612	-1205.96301	888.59485	778.64862	-1245.32019	925.91211	774.60645	-1237.39758	904.66345	702.55518	-867.38757	846.15259	926.23169	-1106.72485	845.51208	924.47699	-919.82654	1008.41516	947.78943	-1068.02637	1007.43707	947.33331	-840.98602	935.41711	628.71808	-882.76813	965.76221	453.89917	-886.42438	1055.56506	276.47647	-934.13770	1112.17834	72.85941	-972.53430	1154.70056	41.90442	-951.79321	962.25024	29.01853	-1160.28308	836.88330	631.80804	-1125.19666	752.62567	472.27618	-1133.91479	736.68567	287.49472	-1096.95300	683.26672	74.96115	-1041.07434	713.97589	36.11034	-1085.70996	537.40344	63.39555				-969.00110	872.34381	1665.74438															 
